<?xml version="1.0" encoding="utf-8" standalone="no"?>
<!DOCTYPE svg PUBLIC "-//W3C//DTD SVG 1.1//EN"
  "http://www.w3.org/Graphics/SVG/1.1/DTD/svg11.dtd">
<svg xmlns:xlink="http://www.w3.org/1999/xlink" width="936pt" height="936pt" viewBox="0 0 936 936" xmlns="http://www.w3.org/2000/svg" version="1.1">
 <metadata>
  <rdf:RDF xmlns:dc="http://purl.org/dc/elements/1.1/" xmlns:cc="http://creativecommons.org/ns#" xmlns:rdf="http://www.w3.org/1999/02/22-rdf-syntax-ns#">
   <cc:Work>
    <dc:type rdf:resource="http://purl.org/dc/dcmitype/StillImage"/>
    <dc:date>2025-07-01T14:54:55.264361</dc:date>
    <dc:format>image/svg+xml</dc:format>
    <dc:creator>
     <cc:Agent>
      <dc:title>Matplotlib v3.10.0, https://matplotlib.org/</dc:title>
     </cc:Agent>
    </dc:creator>
   </cc:Work>
  </rdf:RDF>
 </metadata>
 <defs>
  <style type="text/css">*{stroke-linejoin: round; stroke-linecap: butt}</style>
 </defs>
 <g id="figure_1">
  <g id="patch_1">
   <path d="M 0 936 
L 936 936 
L 936 0 
L 0 0 
z
" style="fill: #ffffff"/>
  </g>
  <g id="axes_1">
   <g id="patch_2">
    <path d="M 117 812.938582 
L 842.4 812.938582 
L 842.4 132.421418 
L 117 132.421418 
z
" style="fill: #ffffff"/>
   </g>
   <g id="PathCollection_1">
    <defs>
     <path id="mcfaa9d42ec" d="M 0 5 
C 1.326016 5 2.597899 4.473168 3.535534 3.535534 
C 4.473168 2.597899 5 1.326016 5 0 
C 5 -1.326016 4.473168 -2.597899 3.535534 -3.535534 
C 2.597899 -4.473168 1.326016 -5 0 -5 
C -1.326016 -5 -2.597899 -4.473168 -3.535534 -3.535534 
C -4.473168 -2.597899 -5 -1.326016 -5 0 
C -5 1.326016 -4.473168 2.597899 -3.535534 3.535534 
C -2.597899 4.473168 -1.326016 5 0 5 
z
" style="stroke: #d3d3d3"/>
    </defs>
    <g clip-path="url(#p92e16564b4)">
     <use xlink:href="#mcfaa9d42ec" x="605.407015" y="479.641936" style="fill: #d3d3d3; stroke: #d3d3d3"/>
     <use xlink:href="#mcfaa9d42ec" x="605.407015" y="479.641936" style="fill: #d3d3d3; stroke: #d3d3d3"/>
     <use xlink:href="#mcfaa9d42ec" x="605.407015" y="479.641936" style="fill: #d3d3d3; stroke: #d3d3d3"/>
     <use xlink:href="#mcfaa9d42ec" x="605.407015" y="479.641936" style="fill: #d3d3d3; stroke: #d3d3d3"/>
     <use xlink:href="#mcfaa9d42ec" x="605.407015" y="479.641936" style="fill: #d3d3d3; stroke: #d3d3d3"/>
     <use xlink:href="#mcfaa9d42ec" x="605.407015" y="479.641936" style="fill: #d3d3d3; stroke: #d3d3d3"/>
     <use xlink:href="#mcfaa9d42ec" x="605.407015" y="479.641936" style="fill: #d3d3d3; stroke: #d3d3d3"/>
     <use xlink:href="#mcfaa9d42ec" x="605.407015" y="479.641936" style="fill: #d3d3d3; stroke: #d3d3d3"/>
     <use xlink:href="#mcfaa9d42ec" x="605.407015" y="479.641936" style="fill: #d3d3d3; stroke: #d3d3d3"/>
     <use xlink:href="#mcfaa9d42ec" x="605.407015" y="479.641936" style="fill: #d3d3d3; stroke: #d3d3d3"/>
     <use xlink:href="#mcfaa9d42ec" x="605.407015" y="479.641936" style="fill: #d3d3d3; stroke: #d3d3d3"/>
     <use xlink:href="#mcfaa9d42ec" x="605.407015" y="479.641936" style="fill: #d3d3d3; stroke: #d3d3d3"/>
     <use xlink:href="#mcfaa9d42ec" x="605.407015" y="479.641936" style="fill: #d3d3d3; stroke: #d3d3d3"/>
     <use xlink:href="#mcfaa9d42ec" x="605.407015" y="479.641936" style="fill: #d3d3d3; stroke: #d3d3d3"/>
     <use xlink:href="#mcfaa9d42ec" x="605.407015" y="479.641936" style="fill: #d3d3d3; stroke: #d3d3d3"/>
     <use xlink:href="#mcfaa9d42ec" x="605.407015" y="479.641936" style="fill: #d3d3d3; stroke: #d3d3d3"/>
     <use xlink:href="#mcfaa9d42ec" x="605.407015" y="479.641936" style="fill: #d3d3d3; stroke: #d3d3d3"/>
     <use xlink:href="#mcfaa9d42ec" x="605.407015" y="479.641936" style="fill: #d3d3d3; stroke: #d3d3d3"/>
     <use xlink:href="#mcfaa9d42ec" x="605.407015" y="479.641936" style="fill: #d3d3d3; stroke: #d3d3d3"/>
     <use xlink:href="#mcfaa9d42ec" x="605.407015" y="479.641936" style="fill: #d3d3d3; stroke: #d3d3d3"/>
     <use xlink:href="#mcfaa9d42ec" x="605.407015" y="479.641936" style="fill: #d3d3d3; stroke: #d3d3d3"/>
     <use xlink:href="#mcfaa9d42ec" x="605.407015" y="479.641936" style="fill: #d3d3d3; stroke: #d3d3d3"/>
     <use xlink:href="#mcfaa9d42ec" x="605.407015" y="479.641936" style="fill: #d3d3d3; stroke: #d3d3d3"/>
     <use xlink:href="#mcfaa9d42ec" x="605.407015" y="479.641936" style="fill: #d3d3d3; stroke: #d3d3d3"/>
     <use xlink:href="#mcfaa9d42ec" x="605.407015" y="479.641936" style="fill: #d3d3d3; stroke: #d3d3d3"/>
     <use xlink:href="#mcfaa9d42ec" x="605.407015" y="479.641936" style="fill: #d3d3d3; stroke: #d3d3d3"/>
     <use xlink:href="#mcfaa9d42ec" x="605.407015" y="479.641936" style="fill: #d3d3d3; stroke: #d3d3d3"/>
     <use xlink:href="#mcfaa9d42ec" x="605.407015" y="479.641936" style="fill: #d3d3d3; stroke: #d3d3d3"/>
     <use xlink:href="#mcfaa9d42ec" x="605.407015" y="479.641936" style="fill: #d3d3d3; stroke: #d3d3d3"/>
     <use xlink:href="#mcfaa9d42ec" x="605.407015" y="479.641936" style="fill: #d3d3d3; stroke: #d3d3d3"/>
     <use xlink:href="#mcfaa9d42ec" x="605.407015" y="479.641936" style="fill: #d3d3d3; stroke: #d3d3d3"/>
     <use xlink:href="#mcfaa9d42ec" x="605.407015" y="479.641936" style="fill: #d3d3d3; stroke: #d3d3d3"/>
     <use xlink:href="#mcfaa9d42ec" x="605.407015" y="479.641936" style="fill: #d3d3d3; stroke: #d3d3d3"/>
     <use xlink:href="#mcfaa9d42ec" x="771.452562" y="163.354016" style="fill: #d3d3d3; stroke: #d3d3d3"/>
     <use xlink:href="#mcfaa9d42ec" x="771.452562" y="163.354016" style="fill: #d3d3d3; stroke: #d3d3d3"/>
     <use xlink:href="#mcfaa9d42ec" x="771.452562" y="163.354016" style="fill: #d3d3d3; stroke: #d3d3d3"/>
     <use xlink:href="#mcfaa9d42ec" x="771.452562" y="163.354016" style="fill: #d3d3d3; stroke: #d3d3d3"/>
     <use xlink:href="#mcfaa9d42ec" x="771.452562" y="163.354016" style="fill: #d3d3d3; stroke: #d3d3d3"/>
     <use xlink:href="#mcfaa9d42ec" x="771.452562" y="163.354016" style="fill: #d3d3d3; stroke: #d3d3d3"/>
     <use xlink:href="#mcfaa9d42ec" x="771.452562" y="163.354016" style="fill: #d3d3d3; stroke: #d3d3d3"/>
     <use xlink:href="#mcfaa9d42ec" x="771.452562" y="163.354016" style="fill: #d3d3d3; stroke: #d3d3d3"/>
     <use xlink:href="#mcfaa9d42ec" x="771.452562" y="163.354016" style="fill: #d3d3d3; stroke: #d3d3d3"/>
     <use xlink:href="#mcfaa9d42ec" x="771.452562" y="163.354016" style="fill: #d3d3d3; stroke: #d3d3d3"/>
     <use xlink:href="#mcfaa9d42ec" x="771.452562" y="163.354016" style="fill: #d3d3d3; stroke: #d3d3d3"/>
     <use xlink:href="#mcfaa9d42ec" x="771.452562" y="163.354016" style="fill: #d3d3d3; stroke: #d3d3d3"/>
     <use xlink:href="#mcfaa9d42ec" x="623.191948" y="677.532199" style="fill: #d3d3d3; stroke: #d3d3d3"/>
     <use xlink:href="#mcfaa9d42ec" x="623.191948" y="677.532199" style="fill: #d3d3d3; stroke: #d3d3d3"/>
     <use xlink:href="#mcfaa9d42ec" x="623.191948" y="677.532199" style="fill: #d3d3d3; stroke: #d3d3d3"/>
     <use xlink:href="#mcfaa9d42ec" x="623.191948" y="677.532199" style="fill: #d3d3d3; stroke: #d3d3d3"/>
     <use xlink:href="#mcfaa9d42ec" x="623.191948" y="677.532199" style="fill: #d3d3d3; stroke: #d3d3d3"/>
     <use xlink:href="#mcfaa9d42ec" x="623.191948" y="677.532199" style="fill: #d3d3d3; stroke: #d3d3d3"/>
     <use xlink:href="#mcfaa9d42ec" x="623.191948" y="677.532199" style="fill: #d3d3d3; stroke: #d3d3d3"/>
     <use xlink:href="#mcfaa9d42ec" x="623.191948" y="677.532199" style="fill: #d3d3d3; stroke: #d3d3d3"/>
     <use xlink:href="#mcfaa9d42ec" x="623.191948" y="677.532199" style="fill: #d3d3d3; stroke: #d3d3d3"/>
     <use xlink:href="#mcfaa9d42ec" x="623.191948" y="677.532199" style="fill: #d3d3d3; stroke: #d3d3d3"/>
     <use xlink:href="#mcfaa9d42ec" x="623.191948" y="677.532199" style="fill: #d3d3d3; stroke: #d3d3d3"/>
     <use xlink:href="#mcfaa9d42ec" x="623.191948" y="677.532199" style="fill: #d3d3d3; stroke: #d3d3d3"/>
     <use xlink:href="#mcfaa9d42ec" x="623.191948" y="677.532199" style="fill: #d3d3d3; stroke: #d3d3d3"/>
     <use xlink:href="#mcfaa9d42ec" x="623.191948" y="677.532199" style="fill: #d3d3d3; stroke: #d3d3d3"/>
     <use xlink:href="#mcfaa9d42ec" x="623.191948" y="677.532199" style="fill: #d3d3d3; stroke: #d3d3d3"/>
     <use xlink:href="#mcfaa9d42ec" x="623.191948" y="677.532199" style="fill: #d3d3d3; stroke: #d3d3d3"/>
     <use xlink:href="#mcfaa9d42ec" x="623.191948" y="677.532199" style="fill: #d3d3d3; stroke: #d3d3d3"/>
     <use xlink:href="#mcfaa9d42ec" x="623.191948" y="677.532199" style="fill: #d3d3d3; stroke: #d3d3d3"/>
     <use xlink:href="#mcfaa9d42ec" x="623.191948" y="677.532199" style="fill: #d3d3d3; stroke: #d3d3d3"/>
     <use xlink:href="#mcfaa9d42ec" x="623.191948" y="677.532199" style="fill: #d3d3d3; stroke: #d3d3d3"/>
     <use xlink:href="#mcfaa9d42ec" x="623.191948" y="677.532199" style="fill: #d3d3d3; stroke: #d3d3d3"/>
     <use xlink:href="#mcfaa9d42ec" x="623.191948" y="677.532199" style="fill: #d3d3d3; stroke: #d3d3d3"/>
     <use xlink:href="#mcfaa9d42ec" x="623.191948" y="677.532199" style="fill: #d3d3d3; stroke: #d3d3d3"/>
     <use xlink:href="#mcfaa9d42ec" x="623.191948" y="677.532199" style="fill: #d3d3d3; stroke: #d3d3d3"/>
     <use xlink:href="#mcfaa9d42ec" x="149.972727" y="473.540448" style="fill: #d3d3d3; stroke: #d3d3d3"/>
     <use xlink:href="#mcfaa9d42ec" x="149.972727" y="473.540448" style="fill: #d3d3d3; stroke: #d3d3d3"/>
     <use xlink:href="#mcfaa9d42ec" x="149.972727" y="473.540448" style="fill: #d3d3d3; stroke: #d3d3d3"/>
     <use xlink:href="#mcfaa9d42ec" x="149.972727" y="473.540448" style="fill: #d3d3d3; stroke: #d3d3d3"/>
     <use xlink:href="#mcfaa9d42ec" x="149.972727" y="473.540448" style="fill: #d3d3d3; stroke: #d3d3d3"/>
     <use xlink:href="#mcfaa9d42ec" x="149.972727" y="473.540448" style="fill: #d3d3d3; stroke: #d3d3d3"/>
     <use xlink:href="#mcfaa9d42ec" x="149.972727" y="473.540448" style="fill: #d3d3d3; stroke: #d3d3d3"/>
     <use xlink:href="#mcfaa9d42ec" x="149.972727" y="473.540448" style="fill: #d3d3d3; stroke: #d3d3d3"/>
     <use xlink:href="#mcfaa9d42ec" x="149.972727" y="473.540448" style="fill: #d3d3d3; stroke: #d3d3d3"/>
     <use xlink:href="#mcfaa9d42ec" x="149.972727" y="473.540448" style="fill: #d3d3d3; stroke: #d3d3d3"/>
     <use xlink:href="#mcfaa9d42ec" x="677.428685" y="627.786572" style="fill: #d3d3d3; stroke: #d3d3d3"/>
     <use xlink:href="#mcfaa9d42ec" x="677.428685" y="627.786572" style="fill: #d3d3d3; stroke: #d3d3d3"/>
     <use xlink:href="#mcfaa9d42ec" x="677.428685" y="627.786572" style="fill: #d3d3d3; stroke: #d3d3d3"/>
     <use xlink:href="#mcfaa9d42ec" x="677.428685" y="627.786572" style="fill: #d3d3d3; stroke: #d3d3d3"/>
     <use xlink:href="#mcfaa9d42ec" x="677.428685" y="627.786572" style="fill: #d3d3d3; stroke: #d3d3d3"/>
     <use xlink:href="#mcfaa9d42ec" x="677.428685" y="627.786572" style="fill: #d3d3d3; stroke: #d3d3d3"/>
     <use xlink:href="#mcfaa9d42ec" x="677.428685" y="627.786572" style="fill: #d3d3d3; stroke: #d3d3d3"/>
     <use xlink:href="#mcfaa9d42ec" x="677.428685" y="627.786572" style="fill: #d3d3d3; stroke: #d3d3d3"/>
     <use xlink:href="#mcfaa9d42ec" x="677.428685" y="627.786572" style="fill: #d3d3d3; stroke: #d3d3d3"/>
     <use xlink:href="#mcfaa9d42ec" x="677.428685" y="627.786572" style="fill: #d3d3d3; stroke: #d3d3d3"/>
     <use xlink:href="#mcfaa9d42ec" x="677.428685" y="627.786572" style="fill: #d3d3d3; stroke: #d3d3d3"/>
     <use xlink:href="#mcfaa9d42ec" x="677.428685" y="627.786572" style="fill: #d3d3d3; stroke: #d3d3d3"/>
     <use xlink:href="#mcfaa9d42ec" x="605.407015" y="479.641936" style="fill: #d3d3d3; stroke: #d3d3d3"/>
     <use xlink:href="#mcfaa9d42ec" x="605.407015" y="479.641936" style="fill: #d3d3d3; stroke: #d3d3d3"/>
     <use xlink:href="#mcfaa9d42ec" x="605.407015" y="479.641936" style="fill: #d3d3d3; stroke: #d3d3d3"/>
     <use xlink:href="#mcfaa9d42ec" x="605.407015" y="479.641936" style="fill: #d3d3d3; stroke: #d3d3d3"/>
     <use xlink:href="#mcfaa9d42ec" x="809.427273" y="740.102397" style="fill: #d3d3d3; stroke: #d3d3d3"/>
     <use xlink:href="#mcfaa9d42ec" x="809.427273" y="740.102397" style="fill: #d3d3d3; stroke: #d3d3d3"/>
     <use xlink:href="#mcfaa9d42ec" x="809.427273" y="740.102397" style="fill: #d3d3d3; stroke: #d3d3d3"/>
     <use xlink:href="#mcfaa9d42ec" x="802.545043" y="779.47522" style="fill: #d3d3d3; stroke: #d3d3d3"/>
     <use xlink:href="#mcfaa9d42ec" x="802.545043" y="779.47522" style="fill: #d3d3d3; stroke: #d3d3d3"/>
     <use xlink:href="#mcfaa9d42ec" x="802.545043" y="779.47522" style="fill: #d3d3d3; stroke: #d3d3d3"/>
     <use xlink:href="#mcfaa9d42ec" x="802.545043" y="779.47522" style="fill: #d3d3d3; stroke: #d3d3d3"/>
    </g>
   </g>
   <g id="PathCollection_2">
    <defs>
     <path id="mafbe773187" d="M -5 5 
L 5 -5 
M -5 -5 
L 5 5 
" style="stroke: #006400; stroke-width: 2"/>
    </defs>
    <g clip-path="url(#p92e16564b4)">
     <use xlink:href="#mafbe773187" x="605.407015" y="479.641936" style="fill: #006400; stroke: #006400; stroke-width: 2"/>
     <use xlink:href="#mafbe773187" x="771.452562" y="163.354016" style="fill: #006400; stroke: #006400; stroke-width: 2"/>
     <use xlink:href="#mafbe773187" x="623.191948" y="677.532199" style="fill: #006400; stroke: #006400; stroke-width: 2"/>
     <use xlink:href="#mafbe773187" x="149.972727" y="473.540448" style="fill: #006400; stroke: #006400; stroke-width: 2"/>
     <use xlink:href="#mafbe773187" x="677.428685" y="627.786572" style="fill: #006400; stroke: #006400; stroke-width: 2"/>
     <use xlink:href="#mafbe773187" x="809.427273" y="740.102397" style="fill: #006400; stroke: #006400; stroke-width: 2"/>
     <use xlink:href="#mafbe773187" x="802.545043" y="779.47522" style="fill: #006400; stroke: #006400; stroke-width: 2"/>
    </g>
   </g>
   <g id="patch_3">
    <path d="M 695.193498 690.073512 
L 690.68903 686.896028 
L 692.78852 685.768614 
L 606.608295 525.282249 
L 606.753088 525.204496 
L 692.933313 685.690861 
L 695.032804 684.563447 
z
" clip-path="url(#p92e16564b4)" style="fill: #0000ff; opacity: 0.5; stroke: #0000ff; stroke-linejoin: miter"/>
   </g>
   <g id="patch_4">
    <path d="M 665.259023 745.794025 
L 661.610759 741.661616 
L 663.913955 741.049887 
L 606.601271 525.264467 
L 606.760112 525.222278 
L 664.072796 741.007698 
L 666.375992 740.395969 
z
" clip-path="url(#p92e16564b4)" style="fill: #0000ff; opacity: 0.5; stroke: #0000ff; stroke-linejoin: miter"/>
   </g>
   <g id="patch_5">
    <path d="M 620.745276 698.387148 
L 617.888957 693.672481 
L 620.264183 693.47954 
L 606.598787 525.250026 
L 606.762596 525.236719 
L 620.427992 693.466234 
L 622.803218 693.273293 
z
" clip-path="url(#p92e16564b4)" style="fill: #0000ff; opacity: 0.5; stroke: #0000ff; stroke-linejoin: miter"/>
   </g>
   <g id="patch_6">
    <path d="M 623.667778 782.005984 
L 620.882451 777.249032 
L 623.260302 777.091716 
L 606.598697 525.248797 
L 606.762686 525.237948 
L 623.424292 777.080867 
L 625.802143 776.923551 
z
" clip-path="url(#p92e16564b4)" style="fill: #0000ff; opacity: 0.5; stroke: #0000ff; stroke-linejoin: miter"/>
   </g>
   <g id="patch_7">
    <path d="M 330.981325 549.983278 
L 335.671709 547.087257 
L 335.884696 549.460769 
L 606.673347 525.161527 
L 606.688036 525.325218 
L 335.899385 549.62446 
L 336.112372 551.997972 
z
" clip-path="url(#p92e16564b4)" style="fill: #0000ff; opacity: 0.5; stroke: #0000ff; stroke-linejoin: miter"/>
   </g>
   <g id="patch_8">
    <path d="M 320.621338 511.467801 
L 325.664656 509.242588 
L 325.55003 511.62288 
L 606.684644 525.161294 
L 606.676739 525.325452 
L 325.542125 511.787038 
L 325.427499 514.167329 
z
" clip-path="url(#p92e16564b4)" style="fill: #0000ff; opacity: 0.5; stroke: #0000ff; stroke-linejoin: miter"/>
   </g>
   <g id="matplotlib.axis_1">
    <g id="xtick_1">
     <g id="line2d_1">
      <defs>
       <path id="md695834920" d="M 0 0 
L 0 3.5 
" style="stroke: #000000; stroke-width: 0.8"/>
      </defs>
      <g>
       <use xlink:href="#md695834920" x="195.810093" y="812.938582" style="stroke: #000000; stroke-width: 0.8"/>
      </g>
     </g>
     <g id="text_1">
      <!-- $\mathdefault{−2.5}$ -->
      <g transform="translate(183.682027 828.240762) scale(0.12 -0.12)">
       <defs>
        <path id="CMSY10-0" d="M 4218 1472 
C 4326 1472 4442 1472 4442 1600 
C 4442 1728 4326 1728 4218 1728 
L 755 1728 
C 646 1728 531 1728 531 1600 
C 531 1472 646 1472 755 1472 
L 4218 1472 
z
" transform="scale(0.015625)"/>
        <path id="CMR17-32" d="M 2669 990 
L 2554 990 
C 2490 537 2438 460 2413 422 
C 2381 371 1920 371 1830 371 
L 602 371 
C 832 620 1280 1073 1824 1596 
C 2214 1966 2669 2400 2669 3033 
C 2669 3788 2067 4224 1395 4224 
C 691 4224 262 3603 262 3027 
C 262 2777 448 2745 525 2745 
C 589 2745 781 2783 781 3007 
C 781 3206 614 3264 525 3264 
C 486 3264 448 3257 422 3244 
C 544 3788 915 4057 1306 4057 
C 1862 4057 2227 3616 2227 3033 
C 2227 2477 1901 1998 1536 1583 
L 262 147 
L 262 0 
L 2515 0 
L 2669 990 
z
" transform="scale(0.015625)"/>
        <path id="CMMI12-3a" d="M 1178 307 
C 1178 492 1024 620 870 620 
C 685 620 557 467 557 313 
C 557 128 710 0 864 0 
C 1050 0 1178 153 1178 307 
z
" transform="scale(0.015625)"/>
        <path id="CMR17-35" d="M 730 3750 
C 794 3724 1056 3641 1325 3641 
C 1920 3641 2246 3961 2432 4140 
C 2432 4191 2432 4224 2394 4224 
C 2387 4224 2374 4224 2323 4198 
C 2099 4102 1837 4032 1517 4032 
C 1325 4032 1037 4055 723 4191 
C 653 4224 640 4224 634 4224 
C 602 4224 595 4217 595 4090 
L 595 2231 
C 595 2113 595 2080 659 2080 
C 691 2080 704 2093 736 2139 
C 941 2435 1222 2560 1542 2560 
C 1766 2560 2246 2415 2246 1293 
C 2246 1087 2246 716 2054 422 
C 1894 159 1645 25 1370 25 
C 947 25 518 319 403 812 
C 429 806 480 793 506 793 
C 589 793 749 838 749 1036 
C 749 1209 627 1280 506 1280 
C 358 1280 262 1190 262 1011 
C 262 454 704 -128 1382 -128 
C 2042 -128 2669 441 2669 1267 
C 2669 2054 2170 2662 1549 2662 
C 1222 2662 947 2540 730 2304 
L 730 3750 
z
" transform="scale(0.015625)"/>
       </defs>
       <use xlink:href="#CMSY10-0" transform="scale(0.996264)"/>
       <use xlink:href="#CMR17-32" transform="translate(77.487468 0) scale(0.996264)"/>
       <use xlink:href="#CMMI12-3a" transform="translate(123.177945 0) scale(0.996264)"/>
       <use xlink:href="#CMR17-35" transform="translate(150.275122 0) scale(0.996264)"/>
      </g>
     </g>
    </g>
    <g id="xtick_2">
     <g id="line2d_2">
      <g>
       <use xlink:href="#md695834920" x="277.984213" y="812.938582" style="stroke: #000000; stroke-width: 0.8"/>
      </g>
     </g>
     <g id="text_2">
      <!-- $\mathdefault{−2.0}$ -->
      <g transform="translate(265.856147 828.240762) scale(0.12 -0.12)">
       <defs>
        <path id="CMR17-30" d="M 2688 2038 
C 2688 2430 2682 3099 2413 3613 
C 2176 4063 1798 4224 1466 4224 
C 1158 4224 768 4082 525 3620 
C 269 3137 243 2539 243 2038 
C 243 1671 250 1112 448 623 
C 723 -39 1216 -128 1466 -128 
C 1760 -128 2208 -7 2470 604 
C 2662 1048 2688 1568 2688 2038 
z
M 1466 -26 
C 1056 -26 813 328 723 816 
C 653 1196 653 1749 653 2109 
C 653 2604 653 3015 736 3407 
C 858 3954 1216 4121 1466 4121 
C 1728 4121 2067 3947 2189 3420 
C 2272 3054 2278 2623 2278 2109 
C 2278 1691 2278 1176 2202 797 
C 2067 96 1690 -26 1466 -26 
z
" transform="scale(0.015625)"/>
       </defs>
       <use xlink:href="#CMSY10-0" transform="scale(0.996264)"/>
       <use xlink:href="#CMR17-32" transform="translate(77.487468 0) scale(0.996264)"/>
       <use xlink:href="#CMMI12-3a" transform="translate(123.177945 0) scale(0.996264)"/>
       <use xlink:href="#CMR17-30" transform="translate(150.275122 0) scale(0.996264)"/>
      </g>
     </g>
    </g>
    <g id="xtick_3">
     <g id="line2d_3">
      <g>
       <use xlink:href="#md695834920" x="360.158332" y="812.938582" style="stroke: #000000; stroke-width: 0.8"/>
      </g>
     </g>
     <g id="text_3">
      <!-- $\mathdefault{−1.5}$ -->
      <g transform="translate(348.030267 828.240762) scale(0.12 -0.12)">
       <defs>
        <path id="CMR17-31" d="M 1702 4083 
C 1702 4217 1696 4224 1606 4224 
C 1357 3927 979 3833 621 3820 
C 602 3820 570 3820 563 3808 
C 557 3795 557 3782 557 3648 
C 755 3648 1088 3686 1344 3839 
L 1344 467 
C 1344 243 1331 166 781 166 
L 589 166 
L 589 0 
C 896 6 1216 12 1523 12 
C 1830 12 2150 6 2458 0 
L 2458 166 
L 2266 166 
C 1715 166 1702 236 1702 467 
L 1702 4083 
z
" transform="scale(0.015625)"/>
       </defs>
       <use xlink:href="#CMSY10-0" transform="scale(0.996264)"/>
       <use xlink:href="#CMR17-31" transform="translate(77.487468 0) scale(0.996264)"/>
       <use xlink:href="#CMMI12-3a" transform="translate(123.177945 0) scale(0.996264)"/>
       <use xlink:href="#CMR17-35" transform="translate(150.275122 0) scale(0.996264)"/>
      </g>
     </g>
    </g>
    <g id="xtick_4">
     <g id="line2d_4">
      <g>
       <use xlink:href="#md695834920" x="442.332452" y="812.938582" style="stroke: #000000; stroke-width: 0.8"/>
      </g>
     </g>
     <g id="text_4">
      <!-- $\mathdefault{−1.0}$ -->
      <g transform="translate(430.204387 828.240762) scale(0.12 -0.12)">
       <use xlink:href="#CMSY10-0" transform="scale(0.996264)"/>
       <use xlink:href="#CMR17-31" transform="translate(77.487468 0) scale(0.996264)"/>
       <use xlink:href="#CMMI12-3a" transform="translate(123.177945 0) scale(0.996264)"/>
       <use xlink:href="#CMR17-30" transform="translate(150.275122 0) scale(0.996264)"/>
      </g>
     </g>
    </g>
    <g id="xtick_5">
     <g id="line2d_5">
      <g>
       <use xlink:href="#md695834920" x="524.506572" y="812.938582" style="stroke: #000000; stroke-width: 0.8"/>
      </g>
     </g>
     <g id="text_5">
      <!-- $\mathdefault{−0.5}$ -->
      <g transform="translate(512.378506 828.240762) scale(0.12 -0.12)">
       <use xlink:href="#CMSY10-0" transform="scale(0.996264)"/>
       <use xlink:href="#CMR17-30" transform="translate(77.487468 0) scale(0.996264)"/>
       <use xlink:href="#CMMI12-3a" transform="translate(123.177945 0) scale(0.996264)"/>
       <use xlink:href="#CMR17-35" transform="translate(150.275122 0) scale(0.996264)"/>
      </g>
     </g>
    </g>
    <g id="xtick_6">
     <g id="line2d_6">
      <g>
       <use xlink:href="#md695834920" x="606.680692" y="812.938582" style="stroke: #000000; stroke-width: 0.8"/>
      </g>
     </g>
     <g id="text_6">
      <!-- $\mathdefault{0.0}$ -->
      <g transform="translate(599.201871 828.240762) scale(0.12 -0.12)">
       <use xlink:href="#CMR17-30" transform="scale(0.996264)"/>
       <use xlink:href="#CMMI12-3a" transform="translate(45.690477 0) scale(0.996264)"/>
       <use xlink:href="#CMR17-30" transform="translate(72.787654 0) scale(0.996264)"/>
      </g>
     </g>
    </g>
    <g id="xtick_7">
     <g id="line2d_7">
      <g>
       <use xlink:href="#md695834920" x="688.854811" y="812.938582" style="stroke: #000000; stroke-width: 0.8"/>
      </g>
     </g>
     <g id="text_7">
      <!-- $\mathdefault{0.5}$ -->
      <g transform="translate(681.37599 828.240762) scale(0.12 -0.12)">
       <use xlink:href="#CMR17-30" transform="scale(0.996264)"/>
       <use xlink:href="#CMMI12-3a" transform="translate(45.690477 0) scale(0.996264)"/>
       <use xlink:href="#CMR17-35" transform="translate(72.787654 0) scale(0.996264)"/>
      </g>
     </g>
    </g>
    <g id="xtick_8">
     <g id="line2d_8">
      <g>
       <use xlink:href="#md695834920" x="771.028931" y="812.938582" style="stroke: #000000; stroke-width: 0.8"/>
      </g>
     </g>
     <g id="text_8">
      <!-- $\mathdefault{1.0}$ -->
      <g transform="translate(763.55011 828.240762) scale(0.12 -0.12)">
       <use xlink:href="#CMR17-31" transform="scale(0.996264)"/>
       <use xlink:href="#CMMI12-3a" transform="translate(45.690477 0) scale(0.996264)"/>
       <use xlink:href="#CMR17-30" transform="translate(72.787654 0) scale(0.996264)"/>
      </g>
     </g>
    </g>
    <g id="text_9">
     <!-- CCA Axis 1 -->
     <g transform="translate(435.962511 847.018658) scale(0.18 -0.18)">
      <defs>
       <path id="CMR17-43" d="M 3974 4351 
C 3974 4467 3968 4473 3930 4473 
C 3904 4473 3898 4467 3853 4390 
L 3571 3849 
C 3258 4249 2874 4480 2381 4480 
C 1286 4480 294 3507 294 2179 
C 294 837 1286 -128 2387 -128 
C 3366 -128 3974 741 3974 1482 
C 3974 1547 3974 1573 3917 1573 
C 3866 1573 3866 1553 3859 1495 
C 3808 592 3168 38 2477 38 
C 1824 38 781 502 781 2179 
C 781 3862 1843 4313 2464 4313 
C 3187 4313 3712 3681 3834 2785 
C 3846 2707 3846 2695 3904 2695 
C 3974 2695 3974 2707 3974 2824 
L 3974 4351 
z
" transform="scale(0.015625)"/>
       <path id="CMR17-41" d="M 2323 4441 
C 2291 4524 2278 4544 2214 4544 
C 2150 4544 2138 4524 2106 4441 
L 749 580 
C 627 236 371 166 147 166 
L 147 0 
C 262 12 518 12 640 12 
C 800 12 1056 12 1210 0 
L 1210 166 
C 909 179 864 382 864 459 
C 864 516 877 548 890 586 
L 1229 1536 
L 2906 1536 
L 3290 453 
C 3322 376 3322 363 3322 338 
C 3322 166 3046 166 2925 166 
L 2925 0 
C 3110 12 3443 12 3642 12 
C 3808 12 4128 12 4282 0 
L 4282 166 
C 3942 166 3827 166 3744 402 
L 2323 4441 
z
M 2067 3924 
L 2848 1702 
L 1286 1702 
L 2067 3924 
z
" transform="scale(0.015625)"/>
       <path id="CMR17-78" d="M 1664 1491 
C 1856 1740 2074 2022 2253 2233 
C 2464 2476 2707 2579 2989 2585 
L 2989 2752 
C 2880 2745 2656 2739 2541 2739 
C 2368 2739 2170 2739 2022 2752 
L 2022 2585 
C 2112 2572 2163 2508 2163 2419 
C 2163 2304 2099 2233 2067 2188 
L 1594 1587 
L 1030 2323 
C 973 2393 973 2406 973 2438 
C 973 2515 1037 2579 1146 2585 
L 1146 2752 
C 992 2739 717 2739 557 2739 
C 384 2739 179 2739 38 2752 
L 38 2585 
C 384 2585 461 2560 614 2368 
L 1350 1414 
C 1363 1401 1395 1363 1395 1344 
C 1395 1318 838 633 768 544 
C 480 198 179 172 6 166 
L 6 0 
C 115 6 339 12 454 12 
C 582 12 864 12 979 0 
L 979 166 
C 941 172 838 185 838 332 
C 838 448 890 518 947 595 
L 1478 1248 
L 2035 524 
C 2086 454 2163 358 2163 313 
C 2163 224 2086 172 1984 166 
L 1984 0 
C 2138 12 2413 12 2573 12 
C 2746 12 2950 12 3091 0 
L 3091 166 
C 2771 166 2675 179 2522 377 
L 1664 1491 
z
" transform="scale(0.015625)"/>
       <path id="CMR17-69" d="M 992 3961 
C 992 4102 877 4224 730 4224 
C 589 4224 467 4108 467 3961 
C 467 3820 582 3699 730 3699 
C 870 3699 992 3814 992 3961 
z
M 243 2745 
L 243 2579 
C 602 2579 653 2540 653 2231 
L 653 443 
C 653 198 627 166 218 166 
L 218 0 
C 371 12 646 12 806 12 
C 960 12 1222 12 1370 0 
L 1370 166 
C 992 166 979 205 979 436 
L 979 2816 
L 243 2745 
z
" transform="scale(0.015625)"/>
       <path id="CMR17-73" d="M 1978 2688 
C 1978 2803 1971 2809 1933 2809 
C 1907 2809 1901 2803 1824 2707 
C 1805 2681 1747 2617 1728 2592 
C 1523 2809 1235 2816 1126 2816 
C 416 2816 160 2444 160 2073 
C 160 1497 813 1363 998 1324 
C 1402 1241 1542 1216 1677 1100 
C 1760 1024 1901 883 1901 652 
C 1901 384 1747 38 1158 38 
C 602 38 403 460 288 1024 
C 269 1113 269 1120 218 1120 
C 166 1120 160 1113 160 985 
L 160 64 
C 160 -52 166 -58 205 -58 
C 237 -58 243 -52 275 0 
C 314 57 410 211 448 275 
C 576 102 800 -64 1158 -64 
C 1792 -64 2131 281 2131 780 
C 2131 1107 1958 1280 1875 1356 
C 1683 1555 1459 1600 1190 1651 
C 838 1728 390 1817 390 2208 
C 390 2374 480 2726 1126 2726 
C 1811 2726 1850 2086 1862 1881 
C 1869 1849 1901 1843 1920 1843 
C 1978 1843 1978 1862 1978 1971 
L 1978 2688 
z
" transform="scale(0.015625)"/>
      </defs>
      <use xlink:href="#CMR17-43" transform="scale(0.996264)"/>
      <use xlink:href="#CMR17-43" transform="translate(66.509881 0) scale(0.996264)"/>
      <use xlink:href="#CMR17-41" transform="translate(133.019761 0) scale(0.996264)"/>
      <use xlink:href="#CMR17-41" transform="translate(232.168157 0) scale(0.996264)"/>
      <use xlink:href="#CMR17-78" transform="translate(301.240587 0) scale(0.996264)"/>
      <use xlink:href="#CMR17-69" transform="translate(349.533503 0) scale(0.996264)"/>
      <use xlink:href="#CMR17-73" transform="translate(374.404561 0) scale(0.996264)"/>
      <use xlink:href="#CMR17-31" transform="translate(440.281865 0) scale(0.996264)"/>
     </g>
    </g>
   </g>
   <g id="matplotlib.axis_2">
    <g id="ytick_1">
     <g id="line2d_9">
      <defs>
       <path id="m4b928385a3" d="M 0 0 
L -3.5 0 
" style="stroke: #000000; stroke-width: 0.8"/>
      </defs>
      <g>
       <use xlink:href="#m4b928385a3" x="117" y="771.765732" style="stroke: #000000; stroke-width: 0.8"/>
      </g>
     </g>
     <g id="text_10">
      <!-- $\mathdefault{−1.5}$ -->
      <g transform="translate(85.743869 775.916822) scale(0.12 -0.12)">
       <use xlink:href="#CMSY10-0" transform="scale(0.996264)"/>
       <use xlink:href="#CMR17-31" transform="translate(77.487468 0) scale(0.996264)"/>
       <use xlink:href="#CMMI12-3a" transform="translate(123.177945 0) scale(0.996264)"/>
       <use xlink:href="#CMR17-35" transform="translate(150.275122 0) scale(0.996264)"/>
      </g>
     </g>
    </g>
    <g id="ytick_2">
     <g id="line2d_10">
      <g>
       <use xlink:href="#m4b928385a3" x="117" y="689.591612" style="stroke: #000000; stroke-width: 0.8"/>
      </g>
     </g>
     <g id="text_11">
      <!-- $\mathdefault{−1.0}$ -->
      <g transform="translate(85.743869 693.742702) scale(0.12 -0.12)">
       <use xlink:href="#CMSY10-0" transform="scale(0.996264)"/>
       <use xlink:href="#CMR17-31" transform="translate(77.487468 0) scale(0.996264)"/>
       <use xlink:href="#CMMI12-3a" transform="translate(123.177945 0) scale(0.996264)"/>
       <use xlink:href="#CMR17-30" transform="translate(150.275122 0) scale(0.996264)"/>
      </g>
     </g>
    </g>
    <g id="ytick_3">
     <g id="line2d_11">
      <g>
       <use xlink:href="#m4b928385a3" x="117" y="607.417492" style="stroke: #000000; stroke-width: 0.8"/>
      </g>
     </g>
     <g id="text_12">
      <!-- $\mathdefault{−0.5}$ -->
      <g transform="translate(85.743869 611.568582) scale(0.12 -0.12)">
       <use xlink:href="#CMSY10-0" transform="scale(0.996264)"/>
       <use xlink:href="#CMR17-30" transform="translate(77.487468 0) scale(0.996264)"/>
       <use xlink:href="#CMMI12-3a" transform="translate(123.177945 0) scale(0.996264)"/>
       <use xlink:href="#CMR17-35" transform="translate(150.275122 0) scale(0.996264)"/>
      </g>
     </g>
    </g>
    <g id="ytick_4">
     <g id="line2d_12">
      <g>
       <use xlink:href="#m4b928385a3" x="117" y="525.243373" style="stroke: #000000; stroke-width: 0.8"/>
      </g>
     </g>
     <g id="text_13">
      <!-- $\mathdefault{0.0}$ -->
      <g transform="translate(95.042358 529.394462) scale(0.12 -0.12)">
       <use xlink:href="#CMR17-30" transform="scale(0.996264)"/>
       <use xlink:href="#CMMI12-3a" transform="translate(45.690477 0) scale(0.996264)"/>
       <use xlink:href="#CMR17-30" transform="translate(72.787654 0) scale(0.996264)"/>
      </g>
     </g>
    </g>
    <g id="ytick_5">
     <g id="line2d_13">
      <g>
       <use xlink:href="#m4b928385a3" x="117" y="443.069253" style="stroke: #000000; stroke-width: 0.8"/>
      </g>
     </g>
     <g id="text_14">
      <!-- $\mathdefault{0.5}$ -->
      <g transform="translate(95.042358 447.220343) scale(0.12 -0.12)">
       <use xlink:href="#CMR17-30" transform="scale(0.996264)"/>
       <use xlink:href="#CMMI12-3a" transform="translate(45.690477 0) scale(0.996264)"/>
       <use xlink:href="#CMR17-35" transform="translate(72.787654 0) scale(0.996264)"/>
      </g>
     </g>
    </g>
    <g id="ytick_6">
     <g id="line2d_14">
      <g>
       <use xlink:href="#m4b928385a3" x="117" y="360.895133" style="stroke: #000000; stroke-width: 0.8"/>
      </g>
     </g>
     <g id="text_15">
      <!-- $\mathdefault{1.0}$ -->
      <g transform="translate(95.042358 365.046223) scale(0.12 -0.12)">
       <use xlink:href="#CMR17-31" transform="scale(0.996264)"/>
       <use xlink:href="#CMMI12-3a" transform="translate(45.690477 0) scale(0.996264)"/>
       <use xlink:href="#CMR17-30" transform="translate(72.787654 0) scale(0.996264)"/>
      </g>
     </g>
    </g>
    <g id="ytick_7">
     <g id="line2d_15">
      <g>
       <use xlink:href="#m4b928385a3" x="117" y="278.721013" style="stroke: #000000; stroke-width: 0.8"/>
      </g>
     </g>
     <g id="text_16">
      <!-- $\mathdefault{1.5}$ -->
      <g transform="translate(95.042358 282.872103) scale(0.12 -0.12)">
       <use xlink:href="#CMR17-31" transform="scale(0.996264)"/>
       <use xlink:href="#CMMI12-3a" transform="translate(45.690477 0) scale(0.996264)"/>
       <use xlink:href="#CMR17-35" transform="translate(72.787654 0) scale(0.996264)"/>
      </g>
     </g>
    </g>
    <g id="ytick_8">
     <g id="line2d_16">
      <g>
       <use xlink:href="#m4b928385a3" x="117" y="196.546894" style="stroke: #000000; stroke-width: 0.8"/>
      </g>
     </g>
     <g id="text_17">
      <!-- $\mathdefault{2.0}$ -->
      <g transform="translate(95.042358 200.697983) scale(0.12 -0.12)">
       <use xlink:href="#CMR17-32" transform="scale(0.996264)"/>
       <use xlink:href="#CMMI12-3a" transform="translate(45.690477 0) scale(0.996264)"/>
       <use xlink:href="#CMR17-30" transform="translate(72.787654 0) scale(0.996264)"/>
      </g>
     </g>
    </g>
    <g id="text_18">
     <!-- CCA Axis 2 -->
     <g transform="translate(78.255805 516.417489) rotate(-90) scale(0.18 -0.18)">
      <use xlink:href="#CMR17-43" transform="scale(0.996264)"/>
      <use xlink:href="#CMR17-43" transform="translate(66.509881 0) scale(0.996264)"/>
      <use xlink:href="#CMR17-41" transform="translate(133.019761 0) scale(0.996264)"/>
      <use xlink:href="#CMR17-41" transform="translate(232.168157 0) scale(0.996264)"/>
      <use xlink:href="#CMR17-78" transform="translate(301.240587 0) scale(0.996264)"/>
      <use xlink:href="#CMR17-69" transform="translate(349.533503 0) scale(0.996264)"/>
      <use xlink:href="#CMR17-73" transform="translate(374.404561 0) scale(0.996264)"/>
      <use xlink:href="#CMR17-32" transform="translate(440.281865 0) scale(0.996264)"/>
     </g>
    </g>
   </g>
   <g id="patch_9">
    <path d="M 117 812.938582 
L 117 132.421418 
" style="fill: none; stroke: #000000; stroke-width: 0.8; stroke-linejoin: miter; stroke-linecap: square"/>
   </g>
   <g id="patch_10">
    <path d="M 842.4 812.938582 
L 842.4 132.421418 
" style="fill: none; stroke: #000000; stroke-width: 0.8; stroke-linejoin: miter; stroke-linecap: square"/>
   </g>
   <g id="patch_11">
    <path d="M 117 812.938582 
L 842.4 812.938582 
" style="fill: none; stroke: #000000; stroke-width: 0.8; stroke-linejoin: miter; stroke-linecap: square"/>
   </g>
   <g id="patch_12">
    <path d="M 117 132.421418 
L 842.4 132.421418 
" style="fill: none; stroke: #000000; stroke-width: 0.8; stroke-linejoin: miter; stroke-linecap: square"/>
   </g>
   <g id="text_19">
    <!-- Plant -->
    <g style="fill: #006400" transform="translate(610.337462 492.588695) scale(0.18 -0.18)">
     <defs>
      <path id="CMR17-50" d="M 1267 2048 
L 2291 2048 
C 3117 2048 3718 2583 3718 3187 
C 3718 3791 3130 4352 2291 4352 
L 333 4352 
L 333 4185 
C 774 4185 845 4185 845 3899 
L 845 453 
C 845 166 774 166 333 166 
L 333 0 
C 518 12 858 12 1056 12 
C 1254 12 1594 12 1779 0 
L 1779 166 
C 1338 166 1267 166 1267 453 
L 1267 2048 
z
M 1254 2182 
L 1254 3937 
C 1254 4153 1267 4185 1523 4185 
L 2170 4185 
C 2995 4185 3232 3715 3232 3187 
C 3232 2608 2950 2182 2170 2182 
L 1254 2182 
z
" transform="scale(0.015625)"/>
      <path id="CMR17-6c" d="M 979 4416 
L 218 4345 
L 218 4179 
C 595 4179 653 4141 653 3835 
L 653 439 
C 653 198 627 166 218 166 
L 218 0 
C 371 12 653 12 813 12 
C 979 12 1261 12 1414 0 
L 1414 166 
C 1005 166 979 191 979 439 
L 979 4416 
z
" transform="scale(0.015625)"/>
      <path id="CMR17-61" d="M 2304 1656 
C 2304 2048 2304 2275 2035 2534 
C 1798 2751 1523 2816 1306 2816 
C 800 2816 435 2408 435 1977 
C 435 1740 627 1728 666 1728 
C 749 1728 896 1779 896 1958 
C 896 2118 774 2188 666 2188 
C 640 2188 608 2182 589 2176 
C 723 2594 1069 2713 1293 2713 
C 1613 2713 1965 2421 1965 1875 
L 1965 1632 
C 1587 1619 1133 1568 774 1373 
C 371 1147 256 822 256 576 
C 256 77 832 -64 1171 -64 
C 1523 -64 1850 135 1990 505 
C 2003 219 2182 -39 2464 -39 
C 2598 -39 2938 51 2938 563 
L 2938 926 
L 2822 926 
L 2822 557 
C 2822 161 2650 109 2566 109 
C 2304 109 2304 446 2304 732 
L 2304 1656 
z
M 1965 887 
C 1965 323 1568 38 1216 38 
C 896 38 646 278 646 576 
C 646 771 730 1114 1101 1322 
C 1408 1497 1760 1523 1965 1536 
L 1965 887 
z
" transform="scale(0.015625)"/>
      <path id="CMR17-6e" d="M 2656 1954 
C 2656 2282 2592 2816 1837 2816 
C 1331 2816 1069 2424 973 2166 
L 966 2166 
L 966 2816 
L 211 2745 
L 211 2578 
C 589 2578 646 2540 646 2231 
L 646 443 
C 646 198 621 166 211 166 
L 211 0 
C 365 12 646 12 813 12 
C 979 12 1267 12 1421 0 
L 1421 166 
C 1011 166 986 192 986 443 
L 986 1678 
C 986 2269 1344 2713 1792 2713 
C 2266 2713 2317 2289 2317 1980 
L 2317 443 
C 2317 198 2291 166 1882 166 
L 1882 0 
C 2035 12 2317 12 2483 12 
C 2650 12 2938 12 3091 0 
L 3091 166 
C 2682 166 2656 192 2656 443 
L 2656 1954 
z
" transform="scale(0.015625)"/>
      <path id="CMR17-74" d="M 966 2585 
L 1862 2585 
L 1862 2752 
L 966 2752 
L 966 3968 
L 851 3968 
C 838 3292 614 2700 70 2687 
L 70 2585 
L 627 2585 
L 627 778 
C 627 655 627 -64 1370 -64 
C 1747 -64 1965 308 1965 784 
L 1965 1151 
L 1850 1151 
L 1850 790 
C 1850 347 1677 51 1408 51 
C 1222 51 966 179 966 765 
L 966 2585 
z
" transform="scale(0.015625)"/>
     </defs>
     <use xlink:href="#CMR17-50" transform="scale(0.996264)"/>
     <use xlink:href="#CMR17-6c" transform="translate(62.586301 0) scale(0.996264)"/>
     <use xlink:href="#CMR17-61" transform="translate(87.457359 0) scale(0.996264)"/>
     <use xlink:href="#CMR17-6e" transform="translate(133.147836 0) scale(0.996264)"/>
     <use xlink:href="#CMR17-74" transform="translate(181.440752 0) scale(0.996264)"/>
    </g>
   </g>
   <g id="text_20">
    <!-- Prototaxites -->
    <g style="fill: #006400" transform="translate(776.38301 176.300776) scale(0.18 -0.18)">
     <defs>
      <path id="CMR17-72" d="M 960 1517 
C 960 2134 1222 2713 1702 2713 
C 1747 2713 1792 2707 1837 2687 
C 1837 2687 1696 2642 1696 2475 
C 1696 2321 1818 2257 1914 2257 
C 1990 2257 2131 2302 2131 2482 
C 2131 2687 1926 2816 1709 2816 
C 1222 2816 1011 2340 947 2115 
L 941 2115 
L 941 2816 
L 198 2745 
L 198 2578 
C 576 2578 634 2540 634 2231 
L 634 443 
C 634 198 608 166 198 166 
L 198 0 
C 352 12 646 12 813 12 
C 998 12 1325 12 1498 0 
L 1498 166 
C 1037 166 960 166 960 455 
L 960 1517 
z
" transform="scale(0.015625)"/>
      <path id="CMR17-6f" d="M 2758 1356 
C 2758 2176 2163 2816 1466 2816 
C 768 2816 173 2176 173 1356 
C 173 550 768 -64 1466 -64 
C 2163 -64 2758 550 2758 1356 
z
M 1466 51 
C 1165 51 909 230 762 480 
C 602 768 582 1126 582 1408 
C 582 1676 595 2009 762 2297 
C 890 2508 1139 2713 1466 2713 
C 1754 2713 1997 2553 2150 2329 
C 2349 2028 2349 1606 2349 1408 
C 2349 1158 2336 774 2163 467 
C 1984 172 1709 51 1466 51 
z
" transform="scale(0.015625)"/>
      <path id="CMR17-65" d="M 2438 1503 
C 2464 1529 2464 1542 2464 1606 
C 2464 2251 2118 2816 1389 2816 
C 710 2816 173 2175 173 1394 
C 173 554 781 -64 1459 -64 
C 2176 -64 2458 619 2458 755 
C 2458 800 2419 800 2406 800 
C 2362 800 2355 787 2330 709 
C 2189 270 1837 51 1504 51 
C 1229 51 954 206 781 490 
C 582 819 582 1200 582 1503 
L 2438 1503 
z
M 589 1600 
C 634 2511 1126 2713 1382 2713 
C 1818 2713 2112 2308 2118 1600 
L 589 1600 
z
" transform="scale(0.015625)"/>
     </defs>
     <use xlink:href="#CMR17-50" transform="scale(0.996264)"/>
     <use xlink:href="#CMR17-72" transform="translate(62.586301 0) scale(0.996264)"/>
     <use xlink:href="#CMR17-6f" transform="translate(97.867068 0) scale(0.996264)"/>
     <use xlink:href="#CMR17-74" transform="translate(143.557545 0) scale(0.996264)"/>
     <use xlink:href="#CMR17-6f" transform="translate(178.838313 0) scale(0.996264)"/>
     <use xlink:href="#CMR17-74" transform="translate(224.52879 0) scale(0.996264)"/>
     <use xlink:href="#CMR17-61" transform="translate(259.809558 0) scale(0.996264)"/>
     <use xlink:href="#CMR17-78" transform="translate(305.500035 0) scale(0.996264)"/>
     <use xlink:href="#CMR17-69" transform="translate(353.792951 0) scale(0.996264)"/>
     <use xlink:href="#CMR17-74" transform="translate(378.66401 0) scale(0.996264)"/>
     <use xlink:href="#CMR17-65" transform="translate(413.944777 0) scale(0.996264)"/>
     <use xlink:href="#CMR17-73" transform="translate(454.430438 0) scale(0.996264)"/>
    </g>
   </g>
   <g id="text_21">
    <!-- Fungi -->
    <g style="fill: #006400" transform="translate(628.122396 690.478958) scale(0.18 -0.18)">
     <defs>
      <path id="CMR17-46" d="M 3482 4339 
L 326 4339 
L 326 4172 
C 768 4172 838 4172 838 3883 
L 838 450 
C 838 166 768 166 326 166 
L 326 0 
C 512 12 870 12 1069 12 
C 1331 12 1638 12 1901 0 
L 1901 166 
L 1760 166 
C 1274 166 1261 229 1261 456 
L 1261 2073 
L 1837 2073 
C 2432 2073 2490 1865 2490 1334 
L 2605 1334 
L 2605 2991 
L 2490 2991 
C 2490 2451 2432 2240 1837 2240 
L 1261 2240 
L 1261 3922 
C 1261 4140 1274 4172 1530 4172 
L 2355 4172 
C 3322 4172 3430 3774 3520 2920 
L 3635 2920 
L 3482 4339 
z
" transform="scale(0.015625)"/>
      <path id="CMR17-75" d="M 1882 2745 
L 1882 2579 
C 2259 2579 2317 2540 2317 2229 
L 2317 1053 
C 2317 510 2029 38 1555 38 
C 1030 38 986 355 986 691 
L 986 2816 
L 211 2745 
L 211 2579 
C 467 2579 640 2579 646 2320 
L 646 1079 
C 646 646 646 368 813 187 
C 896 103 1056 -64 1517 -64 
C 2061 -64 2272 400 2323 536 
L 2330 536 
L 2330 -64 
L 3091 -13 
L 3091 154 
C 2714 154 2656 193 2656 503 
L 2656 2816 
L 1882 2745 
z
" transform="scale(0.015625)"/>
      <path id="CMR17-67" d="M 710 1165 
C 832 1068 1043 960 1299 960 
C 1805 960 2240 1359 2240 1895 
C 2240 2063 2189 2321 1997 2521 
C 2176 2713 2438 2777 2586 2777 
C 2611 2777 2650 2777 2682 2758 
C 2656 2751 2598 2726 2598 2623 
C 2598 2540 2656 2483 2739 2483 
C 2835 2483 2886 2547 2886 2630 
C 2886 2751 2790 2880 2586 2880 
C 2330 2880 2106 2758 1926 2591 
C 1734 2764 1504 2828 1299 2828 
C 794 2828 358 2431 358 1895 
C 358 1527 570 1294 634 1230 
C 442 1004 442 742 442 710 
C 442 544 506 300 723 166 
C 390 82 128 -184 128 -517 
C 128 -996 736 -1344 1466 -1344 
C 2170 -1344 2803 -1009 2803 -510 
C 2803 384 1856 384 1363 384 
C 1216 384 954 384 922 390 
C 723 422 589 601 589 825 
C 589 883 589 1024 710 1165 
z
M 1299 1068 
C 736 1068 736 1766 736 1895 
C 736 2024 736 2719 1299 2719 
C 1862 2719 1862 2024 1862 1895 
C 1862 1766 1862 1068 1299 1068 
z
M 1466 -1236 
C 826 -1236 384 -883 384 -517 
C 384 -311 493 -118 634 -11 
C 794 102 858 102 1293 102 
C 1818 102 2547 102 2547 -517 
C 2547 -883 2106 -1236 1466 -1236 
z
" transform="scale(0.015625)"/>
     </defs>
     <use xlink:href="#CMR17-46" transform="scale(0.996264)"/>
     <use xlink:href="#CMR17-75" transform="translate(52.176591 0) scale(0.996264)"/>
     <use xlink:href="#CMR17-6e" transform="translate(103.071961 0) scale(0.996264)"/>
     <use xlink:href="#CMR17-67" transform="translate(153.967331 0) scale(0.996264)"/>
     <use xlink:href="#CMR17-69" transform="translate(199.657808 0) scale(0.996264)"/>
    </g>
   </g>
   <g id="text_22">
    <!-- Bacteria -->
    <g style="fill: #006400" transform="translate(154.903174 486.487208) scale(0.18 -0.18)">
     <defs>
      <path id="CMR17-42" d="M 333 4352 
L 333 4185 
C 774 4185 845 4185 845 3897 
L 845 451 
C 845 166 774 166 333 166 
L 333 0 
L 2534 0 
C 3354 0 3885 578 3885 1155 
C 3885 1726 3360 2214 2675 2259 
C 3290 2380 3718 2790 3718 3276 
C 3718 3808 3194 4352 2368 4352 
L 333 4352 
z
M 1248 2304 
L 1248 3936 
C 1248 4153 1261 4185 1517 4185 
L 2336 4185 
C 2970 4185 3251 3673 3251 3276 
C 3251 2790 2861 2304 2170 2304 
L 1248 2304 
z
M 1517 166 
C 1261 166 1248 198 1248 413 
L 1248 2201 
L 2432 2201 
C 3091 2201 3411 1624 3411 1161 
C 3411 698 3046 166 2349 166 
L 1517 166 
z
" transform="scale(0.015625)"/>
      <path id="CMR17-63" d="M 2234 2240 
C 2112 2240 1933 2240 1933 2015 
C 1933 1836 2080 1785 2163 1785 
C 2208 1785 2394 1804 2394 2028 
C 2394 2476 1958 2816 1466 2816 
C 787 2816 211 2201 211 1379 
C 211 521 813 -64 1466 -64 
C 2259 -64 2458 676 2458 747 
C 2458 773 2451 792 2406 792 
C 2362 792 2355 786 2330 702 
C 2163 180 1798 51 1523 51 
C 1114 51 621 431 621 1385 
C 621 2358 1094 2700 1472 2700 
C 1722 2700 2093 2582 2234 2240 
z
" transform="scale(0.015625)"/>
     </defs>
     <use xlink:href="#CMR17-42" transform="scale(0.996264)"/>
     <use xlink:href="#CMR17-61" transform="translate(65.188754 0) scale(0.996264)"/>
     <use xlink:href="#CMR17-63" transform="translate(110.879232 0) scale(0.996264)"/>
     <use xlink:href="#CMR17-74" transform="translate(151.364892 0) scale(0.996264)"/>
     <use xlink:href="#CMR17-65" transform="translate(186.64566 0) scale(0.996264)"/>
     <use xlink:href="#CMR17-72" transform="translate(227.13132 0) scale(0.996264)"/>
     <use xlink:href="#CMR17-69" transform="translate(262.412088 0) scale(0.996264)"/>
     <use xlink:href="#CMR17-61" transform="translate(287.283147 0) scale(0.996264)"/>
    </g>
   </g>
   <g id="text_23">
    <!-- Arthropods -->
    <g style="fill: #006400" transform="translate(682.359132 640.733332) scale(0.18 -0.18)">
     <defs>
      <path id="CMR17-68" d="M 2656 1954 
C 2656 2282 2592 2816 1837 2816 
C 1312 2816 1056 2392 979 2179 
L 973 2179 
L 973 4416 
L 211 4345 
L 211 4179 
C 589 4179 646 4141 646 3843 
L 646 443 
C 646 198 621 166 211 166 
L 211 0 
C 365 12 646 12 813 12 
C 979 12 1267 12 1421 0 
L 1421 166 
C 1011 166 986 192 986 443 
L 986 1678 
C 986 2269 1344 2713 1792 2713 
C 2266 2713 2317 2289 2317 1980 
L 2317 443 
C 2317 198 2291 166 1882 166 
L 1882 0 
C 2035 12 2317 12 2483 12 
C 2650 12 2938 12 3091 0 
L 3091 166 
C 2682 166 2656 192 2656 443 
L 2656 1954 
z
" transform="scale(0.015625)"/>
      <path id="CMR17-70" d="M 1408 -1114 
C 998 -1114 973 -1088 973 -834 
L 973 380 
C 1158 109 1427 -64 1766 -64 
C 2406 -64 3053 503 3053 1382 
C 3053 2196 2496 2816 1837 2816 
C 1453 2816 1139 2603 960 2345 
L 960 2816 
L 198 2745 
L 198 2577 
C 576 2577 634 2539 634 2228 
L 634 -834 
C 634 -1081 608 -1114 198 -1114 
L 198 -1280 
C 352 -1268 634 -1268 800 -1268 
C 966 -1268 1254 -1268 1408 -1280 
L 1408 -1114 
z
M 973 2015 
C 973 2106 973 2241 1222 2481 
C 1254 2506 1472 2700 1792 2700 
C 2259 2700 2643 2112 2643 1376 
C 2643 639 2234 38 1728 38 
C 1498 38 1248 148 1056 451 
C 973 594 973 632 973 736 
L 973 2015 
z
" transform="scale(0.015625)"/>
      <path id="CMR17-64" d="M 1869 4345 
L 1869 4179 
C 2246 4179 2304 4141 2304 3843 
L 2304 2371 
C 2278 2403 2016 2816 1498 2816 
C 845 2816 211 2228 211 1376 
C 211 529 806 -64 1434 -64 
C 1978 -64 2259 361 2291 406 
L 2291 -64 
L 3066 -13 
L 3066 154 
C 2688 154 2630 193 2630 503 
L 2630 4416 
L 1869 4345 
z
M 2291 762 
C 2291 568 2176 393 2029 264 
C 1811 70 1594 38 1472 38 
C 1286 38 621 135 621 1369 
C 621 2636 1363 2713 1530 2713 
C 1824 2713 2061 2545 2208 2313 
C 2291 2177 2291 2157 2291 2041 
L 2291 762 
z
" transform="scale(0.015625)"/>
     </defs>
     <use xlink:href="#CMR17-41" transform="scale(0.996264)"/>
     <use xlink:href="#CMR17-72" transform="translate(69.07243 0) scale(0.996264)"/>
     <use xlink:href="#CMR17-74" transform="translate(104.353198 0) scale(0.996264)"/>
     <use xlink:href="#CMR17-68" transform="translate(139.633965 0) scale(0.996264)"/>
     <use xlink:href="#CMR17-72" transform="translate(190.529335 0) scale(0.996264)"/>
     <use xlink:href="#CMR17-6f" transform="translate(225.810103 0) scale(0.996264)"/>
     <use xlink:href="#CMR17-70" transform="translate(271.50058 0) scale(0.996264)"/>
     <use xlink:href="#CMR17-6f" transform="translate(324.998389 0) scale(0.996264)"/>
     <use xlink:href="#CMR17-64" transform="translate(373.291304 0) scale(0.996264)"/>
     <use xlink:href="#CMR17-73" transform="translate(424.186674 0) scale(0.996264)"/>
    </g>
   </g>
   <g id="text_24">
    <!-- Amobea -->
    <g style="fill: #006400" transform="translate(814.35772 753.049157) scale(0.18 -0.18)">
     <defs>
      <path id="CMR17-6d" d="M 4326 1954 
C 4326 2276 4269 2816 3507 2816 
C 3072 2816 2771 2520 2656 2173 
L 2650 2173 
C 2573 2700 2195 2816 1837 2816 
C 1331 2816 1069 2424 973 2166 
L 966 2166 
L 966 2816 
L 211 2745 
L 211 2578 
C 589 2578 646 2540 646 2231 
L 646 443 
C 646 198 621 166 211 166 
L 211 0 
C 365 12 646 12 813 12 
C 979 12 1267 12 1421 0 
L 1421 166 
C 1011 166 986 192 986 443 
L 986 1678 
C 986 2269 1344 2713 1792 2713 
C 2266 2713 2317 2289 2317 1980 
L 2317 443 
C 2317 198 2291 166 1882 166 
L 1882 0 
C 2035 12 2317 12 2483 12 
C 2650 12 2938 12 3091 0 
L 3091 166 
C 2682 166 2656 192 2656 443 
L 2656 1678 
C 2656 2269 3014 2713 3462 2713 
C 3936 2713 3987 2289 3987 1980 
L 3987 443 
C 3987 198 3962 166 3552 166 
L 3552 0 
C 3706 12 3987 12 4154 12 
C 4320 12 4608 12 4762 0 
L 4762 166 
C 4352 166 4326 192 4326 443 
L 4326 1954 
z
" transform="scale(0.015625)"/>
      <path id="CMR17-62" d="M 960 4416 
L 198 4345 
L 198 4179 
C 576 4179 634 4141 634 3843 
L 634 -13 
L 749 -13 
L 934 445 
C 1120 141 1395 -64 1766 -64 
C 2406 -64 3053 503 3053 1382 
C 3053 2209 2477 2816 1830 2816 
C 1434 2816 1152 2603 960 2351 
L 960 4416 
z
M 973 2022 
C 973 2138 973 2157 1062 2293 
C 1312 2681 1670 2713 1792 2713 
C 1984 2713 2643 2610 2643 1388 
C 2643 109 1888 38 1734 38 
C 1536 38 1248 115 1043 490 
C 973 613 973 626 973 742 
L 973 2022 
z
" transform="scale(0.015625)"/>
     </defs>
     <use xlink:href="#CMR17-41" transform="scale(0.996264)"/>
     <use xlink:href="#CMR17-6d" transform="translate(69.07243 0) scale(0.996264)"/>
     <use xlink:href="#CMR17-6f" transform="translate(145.99202 0) scale(0.996264)"/>
     <use xlink:href="#CMR17-62" transform="translate(191.682497 0) scale(0.996264)"/>
     <use xlink:href="#CMR17-65" transform="translate(245.180305 0) scale(0.996264)"/>
     <use xlink:href="#CMR17-61" transform="translate(285.665966 0) scale(0.996264)"/>
    </g>
   </g>
   <g id="text_25">
    <!-- Oomycetes -->
    <g style="fill: #006400" transform="translate(807.47549 792.42198) scale(0.18 -0.18)">
     <defs>
      <path id="CMR17-4f" d="M 4307 2166 
C 4307 3488 3366 4480 2304 4480 
C 1216 4480 294 3475 294 2166 
C 294 857 1229 -128 2298 -128 
C 3392 -128 4307 876 4307 2166 
z
M 2304 -13 
C 1574 -13 781 722 781 2250 
C 781 3771 1651 4364 2298 4364 
C 2976 4364 3821 3752 3821 2250 
C 3821 696 3008 -13 2304 -13 
z
" transform="scale(0.015625)"/>
      <path id="CMR17-79" d="M 2496 2183 
C 2656 2579 2944 2585 3034 2585 
L 3034 2752 
C 2912 2745 2752 2739 2630 2739 
C 2496 2739 2285 2739 2157 2752 
L 2157 2585 
C 2400 2566 2406 2384 2406 2332 
C 2406 2268 2394 2235 2362 2158 
L 1664 409 
L 902 2300 
C 870 2378 870 2423 870 2430 
C 870 2572 1018 2585 1171 2585 
L 1171 2752 
C 1018 2739 742 2739 582 2739 
C 410 2739 205 2739 64 2752 
L 64 2585 
C 410 2585 448 2553 531 2345 
L 1485 -31 
C 1197 -795 1030 -1242 627 -1242 
C 557 -1242 397 -1223 282 -1106 
C 429 -1093 493 -1002 493 -892 
C 493 -782 416 -685 288 -685 
C 147 -685 77 -782 77 -899 
C 77 -1158 339 -1344 627 -1344 
C 998 -1344 1229 -983 1357 -659 
L 2496 2183 
z
" transform="scale(0.015625)"/>
     </defs>
     <use xlink:href="#CMR17-4f" transform="scale(0.996264)"/>
     <use xlink:href="#CMR17-6f" transform="translate(71.714788 0) scale(0.996264)"/>
     <use xlink:href="#CMR17-6d" transform="translate(117.405266 0) scale(0.996264)"/>
     <use xlink:href="#CMR17-79" transform="translate(191.722401 0) scale(0.996264)"/>
     <use xlink:href="#CMR17-63" transform="translate(240.015317 0) scale(0.996264)"/>
     <use xlink:href="#CMR17-65" transform="translate(280.500978 0) scale(0.996264)"/>
     <use xlink:href="#CMR17-74" transform="translate(320.986638 0) scale(0.996264)"/>
     <use xlink:href="#CMR17-65" transform="translate(356.267406 0) scale(0.996264)"/>
     <use xlink:href="#CMR17-73" transform="translate(396.753067 0) scale(0.996264)"/>
    </g>
   </g>
   <g id="text_26">
    <!-- N- products -->
    <g style="fill: #0000ff" transform="translate(661.110141 711.039144) scale(0.18 -0.18)">
     <defs>
      <path id="CMR17-4e" d="M 1312 4275 
C 1267 4345 1261 4352 1139 4352 
L 326 4352 
L 326 4185 
L 448 4185 
C 704 4185 819 4153 838 4147 
L 838 624 
C 838 465 838 166 326 166 
L 326 0 
C 474 12 742 12 902 12 
C 1062 12 1331 12 1478 0 
L 1478 166 
C 966 166 966 465 966 624 
L 966 4057 
C 1011 4019 1011 4007 1056 3943 
L 3430 76 
C 3475 0 3494 0 3526 0 
C 3590 0 3590 19 3590 140 
L 3590 3726 
C 3590 3885 3590 4185 4102 4185 
L 4102 4352 
C 3955 4339 3686 4339 3526 4339 
C 3366 4339 3098 4339 2950 4352 
L 2950 4185 
C 3462 4185 3462 3885 3462 3726 
L 3462 777 
L 1312 4275 
z
" transform="scale(0.015625)"/>
      <path id="CMR17-2d" d="M 1632 1254 
L 1632 1536 
L 26 1536 
L 26 1254 
L 1632 1254 
z
" transform="scale(0.015625)"/>
     </defs>
     <use xlink:href="#CMR17-4e" transform="scale(0.996264)"/>
     <use xlink:href="#CMR17-2d" transform="translate(69.07243 0) scale(0.996264)"/>
     <use xlink:href="#CMR17-70" transform="translate(129.224362 0) scale(0.996264)"/>
     <use xlink:href="#CMR17-72" transform="translate(180.119732 0) scale(0.996264)"/>
     <use xlink:href="#CMR17-6f" transform="translate(215.4005 0) scale(0.996264)"/>
     <use xlink:href="#CMR17-64" transform="translate(263.693416 0) scale(0.996264)"/>
     <use xlink:href="#CMR17-75" transform="translate(314.588786 0) scale(0.996264)"/>
     <use xlink:href="#CMR17-63" transform="translate(365.484155 0) scale(0.996264)"/>
     <use xlink:href="#CMR17-74" transform="translate(405.969816 0) scale(0.996264)"/>
     <use xlink:href="#CMR17-73" transform="translate(441.250584 0) scale(0.996264)"/>
    </g>
   </g>
   <g id="text_27">
    <!-- Amide II -->
    <g style="fill: #0000ff" transform="translate(638.698934 772.331709) scale(0.18 -0.18)">
     <defs>
      <path id="CMR17-49" d="M 1261 3898 
C 1261 4185 1338 4185 1798 4185 
L 1798 4352 
C 1594 4339 1267 4339 1050 4339 
C 832 4339 506 4339 301 4352 
L 301 4185 
C 762 4185 838 4185 838 3898 
L 838 453 
C 838 166 762 166 301 166 
L 301 0 
C 506 12 832 12 1050 12 
C 1267 12 1594 12 1798 0 
L 1798 166 
C 1338 166 1261 166 1261 453 
L 1261 3898 
z
" transform="scale(0.015625)"/>
     </defs>
     <use xlink:href="#CMR17-41" transform="scale(0.996264)"/>
     <use xlink:href="#CMR17-6d" transform="translate(69.07243 0) scale(0.996264)"/>
     <use xlink:href="#CMR17-69" transform="translate(145.99202 0) scale(0.996264)"/>
     <use xlink:href="#CMR17-64" transform="translate(170.863078 0) scale(0.996264)"/>
     <use xlink:href="#CMR17-65" transform="translate(221.758448 0) scale(0.996264)"/>
     <use xlink:href="#CMR17-49" transform="translate(292.320075 0) scale(0.996264)"/>
     <use xlink:href="#CMR17-49" transform="translate(327.560923 0) scale(0.996264)"/>
    </g>
   </g>
   <g id="text_28">
    <!-- N- product and carboxylate -->
    <g style="fill: #0000ff" transform="translate(522.266189 720.184143) scale(0.18 -0.18)">
     <use xlink:href="#CMR17-4e" transform="scale(0.996264)"/>
     <use xlink:href="#CMR17-2d" transform="translate(69.07243 0) scale(0.996264)"/>
     <use xlink:href="#CMR17-70" transform="translate(129.224362 0) scale(0.996264)"/>
     <use xlink:href="#CMR17-72" transform="translate(180.119732 0) scale(0.996264)"/>
     <use xlink:href="#CMR17-6f" transform="translate(215.4005 0) scale(0.996264)"/>
     <use xlink:href="#CMR17-64" transform="translate(263.693416 0) scale(0.996264)"/>
     <use xlink:href="#CMR17-75" transform="translate(314.588786 0) scale(0.996264)"/>
     <use xlink:href="#CMR17-63" transform="translate(365.484155 0) scale(0.996264)"/>
     <use xlink:href="#CMR17-74" transform="translate(405.969816 0) scale(0.996264)"/>
     <use xlink:href="#CMR17-61" transform="translate(471.32655 0) scale(0.996264)"/>
     <use xlink:href="#CMR17-6e" transform="translate(517.017027 0) scale(0.996264)"/>
     <use xlink:href="#CMR17-64" transform="translate(567.912397 0) scale(0.996264)"/>
     <use xlink:href="#CMR17-63" transform="translate(648.883733 0) scale(0.996264)"/>
     <use xlink:href="#CMR17-61" transform="translate(689.369394 0) scale(0.996264)"/>
     <use xlink:href="#CMR17-72" transform="translate(735.059871 0) scale(0.996264)"/>
     <use xlink:href="#CMR17-62" transform="translate(770.340638 0) scale(0.996264)"/>
     <use xlink:href="#CMR17-6f" transform="translate(823.838447 0) scale(0.996264)"/>
     <use xlink:href="#CMR17-78" transform="translate(866.92647 0) scale(0.996264)"/>
     <use xlink:href="#CMR17-79" transform="translate(915.219386 0) scale(0.996264)"/>
     <use xlink:href="#CMR17-6c" transform="translate(963.512302 0) scale(0.996264)"/>
     <use xlink:href="#CMR17-61" transform="translate(988.38336 0) scale(0.996264)"/>
     <use xlink:href="#CMR17-74" transform="translate(1034.073837 0) scale(0.996264)"/>
     <use xlink:href="#CMR17-65" transform="translate(1069.354605 0) scale(0.996264)"/>
    </g>
   </g>
   <g id="text_29">
    <!-- Amide I -->
    <g style="fill: #0000ff" transform="translate(596.120233 812.164863) scale(0.18 -0.18)">
     <use xlink:href="#CMR17-41" transform="scale(0.996264)"/>
     <use xlink:href="#CMR17-6d" transform="translate(69.07243 0) scale(0.996264)"/>
     <use xlink:href="#CMR17-69" transform="translate(145.99202 0) scale(0.996264)"/>
     <use xlink:href="#CMR17-64" transform="translate(170.863078 0) scale(0.996264)"/>
     <use xlink:href="#CMR17-65" transform="translate(221.758448 0) scale(0.996264)"/>
     <use xlink:href="#CMR17-49" transform="translate(292.320075 0) scale(0.996264)"/>
    </g>
   </g>
   <g id="text_30">
    <!-- CH2 -->
    <g style="fill: #0000ff" transform="translate(287.096843 556.939886) scale(0.18 -0.18)">
     <defs>
      <path id="CMR17-48" d="M 3590 3898 
C 3590 4185 3661 4185 4102 4185 
L 4102 4352 
C 3917 4339 3578 4339 3379 4339 
C 3181 4339 2842 4339 2656 4352 
L 2656 4185 
C 3098 4185 3168 4185 3168 3898 
L 3168 2342 
L 1261 2342 
L 1261 3898 
C 1261 4185 1331 4185 1773 4185 
L 1773 4352 
C 1587 4339 1248 4339 1050 4339 
C 851 4339 512 4339 326 4352 
L 326 4185 
C 768 4185 838 4185 838 3898 
L 838 452 
C 838 166 768 166 326 166 
L 326 0 
C 512 12 851 12 1050 12 
C 1248 12 1587 12 1773 0 
L 1773 166 
C 1331 166 1261 166 1261 452 
L 1261 2176 
L 3168 2176 
L 3168 452 
C 3168 166 3098 166 2656 166 
L 2656 0 
C 2842 12 3181 12 3379 12 
C 3578 12 3917 12 4102 0 
L 4102 166 
C 3661 166 3590 166 3590 452 
L 3590 3898 
z
" transform="scale(0.015625)"/>
     </defs>
     <use xlink:href="#CMR17-43" transform="scale(0.996264)"/>
     <use xlink:href="#CMR17-48" transform="translate(66.509881 0) scale(0.996264)"/>
     <use xlink:href="#CMR17-32" transform="translate(135.58231 0) scale(0.996264)"/>
    </g>
   </g>
   <g id="text_31">
    <!-- CH3 -->
    <g style="fill: #0000ff" transform="translate(275.700857 514.572862) scale(0.18 -0.18)">
     <defs>
      <path id="CMR17-33" d="M 1414 2176 
C 1984 2176 2234 1673 2234 1094 
C 2234 322 1824 25 1453 25 
C 1114 25 563 193 390 691 
C 422 678 454 678 486 678 
C 640 678 755 780 755 947 
C 755 1132 614 1216 486 1216 
C 378 1216 211 1164 211 927 
C 211 335 787 -128 1466 -128 
C 2176 -128 2720 432 2720 1087 
C 2720 1718 2208 2176 1600 2246 
C 2086 2347 2554 2776 2554 3353 
C 2554 3856 2048 4224 1472 4224 
C 890 4224 378 3862 378 3347 
C 378 3123 544 3084 627 3084 
C 762 3084 877 3167 877 3334 
C 877 3500 762 3584 627 3584 
C 602 3584 570 3584 544 3571 
C 730 3999 1235 4076 1459 4076 
C 1683 4076 2106 3966 2106 3347 
C 2106 3167 2080 2851 1862 2574 
C 1670 2329 1453 2316 1242 2297 
C 1210 2297 1062 2284 1037 2284 
C 992 2278 966 2272 966 2227 
C 966 2182 973 2176 1101 2176 
L 1414 2176 
z
" transform="scale(0.015625)"/>
     </defs>
     <use xlink:href="#CMR17-43" transform="scale(0.996264)"/>
     <use xlink:href="#CMR17-48" transform="translate(66.509881 0) scale(0.996264)"/>
     <use xlink:href="#CMR17-33" transform="translate(135.58231 0) scale(0.996264)"/>
    </g>
   </g>
  </g>
 </g>
 <defs>
  <clipPath id="p92e16564b4">
   <rect x="117" y="132.421418" width="725.4" height="680.517165"/>
  </clipPath>
 </defs>
</svg>
